<?xml version="1.0" encoding="UTF-8"?>
<svg width="752pt" height="752pt" version="1.1" viewBox="0 0 752 752" xmlns="http://www.w3.org/2000/svg">
 <g fill="#fff">
  <path d="m298.3 235.41c-10.789 0.019531-21.129 4.3164-28.758 11.941-7.6289 7.6289-11.922 17.969-11.941 28.758-0.10938 1.5508-0.10938 3.1094 0 4.6602-3.043-0.63281-6.1406-0.95703-9.25-0.96094-12.266 0-24.027 4.875-32.703 13.547-8.6719 8.6719-13.543 20.438-13.543 32.703 0.019531 4.1523 0.58984 8.2812 1.6992 12.281-8.5547 10.664-13.086 23.996-12.801 37.664-0.28516 13.668 4.2461 27.004 12.801 37.664-1.1094 4.0039-1.6797 8.1328-1.6992 12.285 0 12.266 4.8711 24.031 13.543 32.703 8.6758 8.6719 20.438 13.547 32.703 13.547 3.1094-0.003907 6.207-0.32812 9.25-0.96484-0.10938 1.5547-0.10938 3.1094 0 4.6641 0 14.539 7.7578 27.977 20.352 35.246 12.59 7.2695 28.105 7.2695 40.695 0 12.594-7.2695 20.352-20.707 20.352-35.246v-199.79c-0.019531-10.789-4.3164-21.129-11.941-28.758-7.6289-7.625-17.969-11.922-28.758-11.941zm0 266.39c-6.8672 0-13.457-2.7305-18.312-7.5859-4.8594-4.8555-7.5859-11.445-7.5859-18.312 0-4.9414 1.4414-9.7773 4.1445-13.914 0.23828-0.42188 0.4375-0.86719 0.58984-1.332 0.15625-0.33203 0.28125-0.67969 0.37109-1.0352 0.92188-4.6641 3.5625-8.8086 7.3984-11.617 3.3008-1.0938 6.9219-0.63281 9.8438 1.2578 1.7617 1.0625 3.8867 1.3398 5.8633 0.76953 1.9766-0.56641 3.625-1.9336 4.5547-3.7695 0.92578-1.8359 1.0508-3.9766 0.33594-5.9062-0.71094-1.9297-2.1953-3.4727-4.0938-4.2656-6.9766-4.125-15.512-4.6484-22.941-1.4062-7.1875 3.9648-12.508 10.617-14.797 18.5-6.3867 3.7461-13.891 5.1055-21.184 3.8438-7.293-1.2656-13.902-5.0742-18.652-10.75-4.7539-5.6719-7.3398-12.848-7.3008-20.25-0.039062-0.69141-0.039062-1.3828 0-2.0703 4.6133 2.2344 9.6719 3.3984 14.797 3.4023 10.5-0.33984 20.41-4.9336 27.453-12.727 2.9023-2.9023 2.9023-7.6055 0-10.508-2.9023-2.9023-7.6055-2.9023-10.508 0-15.91 15.91-28.785 4.957-31.227 2.5898-7.25-8.2188-11.336-18.75-11.527-29.703-0.1875-10.957 3.5312-21.625 10.492-30.086 6.1406-1.1836 24.051-3.4766 31.004 10.359 1.2539 2.4883 3.8008 4.0586 6.5859 4.0703 1.1602 0.011719 2.3086-0.26953 3.332-0.81641 3.6289-1.8477 5.082-6.2773 3.2539-9.9141-9.1016-18.277-29.598-20.645-43.066-18.871-0.31641-1.832-0.49219-3.6875-0.51562-5.5469-0.019531-8.4141 3.3203-16.484 9.2852-22.418 5.9609-5.9336 14.047-9.2383 22.457-9.1797 5.4922 0.027343 10.879 1.5078 15.613 4.293 3.5508 11.543 14.059 29.008 34.336 29.008v-0.003906c4.0859 0 7.3984-3.3125 7.3984-7.3984 0-4.0859-3.3125-7.3984-7.3984-7.3984-15.836 0-20.57-19.684-20.719-20.645v-0.003907c-0.17188-0.86328-0.5-1.6914-0.96094-2.4414-2.7305-4.1289-4.1953-8.9609-4.2188-13.91 0-9.2539 4.9375-17.805 12.949-22.43s17.887-4.625 25.898 0c8.0117 4.625 12.949 13.176 12.949 22.43v82.656c-9.6953 2.3672-27.23 8.8047-32.93 25.973-0.63281 1.8633-0.49609 3.9023 0.37891 5.668 0.875 1.7617 2.418 3.1055 4.2852 3.7266 0.78516 0.10156 1.582 0.10156 2.3672 0 3.1797 0.011719 6.0117-2.0156 7.0312-5.0312 3.5781-7.6797 10.574-13.219 18.867-14.945v101.75c0 6.8672-2.7266 13.457-7.5859 18.312-4.8555 4.8555-11.445 7.5859-18.312 7.5859z"/>
  <path d="m492.32 391.91c1.3555-5.1953 2.0547-10.539 2.0742-15.91 0.28516-13.668-4.2461-27-12.805-37.664 1.1094-4 1.6836-8.1289 1.7031-12.281 0-12.266-4.8711-24.031-13.547-32.703-8.6719-8.6719-20.434-13.547-32.699-13.547-3.207-0.015626-6.4102 0.30469-9.5469 0.96094 0.10938-1.5508 0.10938-3.1094 0-4.6602 0-14.539-7.7578-27.977-20.352-35.246-12.59-7.2695-28.105-7.2695-40.695 0-12.594 7.2695-20.352 20.707-20.352 35.246v199.79c0.019531 10.84 4.3555 21.223 12.047 28.859 7.6914 7.6367 18.109 11.898 28.949 11.84 7.3438-0.027344 14.539-2.0742 20.793-5.9219 13.281 24.863 38.484 41.082 66.613 42.875 28.133 1.7969 55.188-11.094 71.52-34.066 16.332-22.977 19.617-52.766 8.6797-78.746s-34.535-44.449-62.383-48.828zm-105.22 109.89c-6.8711 0-13.457-2.7305-18.312-7.5859-4.8594-4.8555-7.5859-11.445-7.5859-18.312v-101.75c8.3711 1.8047 15.379 7.4961 18.867 15.316 1.0586 3.1484 4.0859 5.2031 7.4023 5.0312 0.78516 0.10156 1.582 0.10156 2.3672 0 1.8672-0.625 3.4062-1.9648 4.2812-3.7305 0.875-1.7617 1.0117-3.8008 0.37891-5.668-6.0664-17.535-23.605-23.898-33.297-26.34v-82.656c0-9.2539 4.9336-17.805 12.949-22.43 8.0117-4.625 17.887-4.625 25.898 0s12.949 13.176 12.949 22.43c0 4.9414-1.4414 9.7734-4.1445 13.91-0.48828 0.73828-0.81641 1.5703-0.96094 2.4414 0 0-4.6602 20.645-20.719 20.645v0.003907c-4.0859 0-7.4023 3.3125-7.4023 7.3984 0 4.0859 3.3164 7.3984 7.4023 7.3984 20.273 0 30.781-17.465 34.336-29.008l-0.003907 0.003907c4.7148-2.7695 10.074-4.25 15.543-4.293 8.332 0.019531 16.32 3.3398 22.215 9.2305 5.8945 5.8945 9.2109 13.883 9.2305 22.219-0.023438 1.8594-0.19922 3.7148-0.51562 5.5469-13.762-1.7773-33.965 0.59375-43.066 18.871-1.8281 3.6367-0.37109 8.0703 3.2539 9.9141 1.0234 0.55078 2.1719 0.82812 3.332 0.81641 2.7852-0.007813 5.332-1.582 6.5859-4.0703 6.957-13.836 24.938-11.543 31.004-10.359 6.9961 8.1055 10.742 18.52 10.508 29.227-0.023437 5.0195-0.79688 10.008-2.293 14.801-14.668 0.33984-28.953 4.7188-41.293 12.652-2.6523-1.9258-6.2578-1.875-8.8594 0.125-2.5977 2.0039-3.5703 5.4766-2.3867 8.5352-7.1641 6.5781-13.082 14.398-17.465 23.086-7.5391-3.5352-16.332-3.1484-23.531 1.0352-3.3203 2-4.5352 6.2227-2.7852 9.6797 1.7461 3.4609 5.8672 4.9805 9.4453 3.4922 5.5508-2.7383 8.8789-2.1445 11.246 0h0.003907c-2.2344 7.3945-3.4062 15.066-3.4805 22.793 0.015625 8.3828 1.3164 16.719 3.8477 24.715-4.3281 3.1875-9.5703 4.8984-14.945 4.8828zm92.496 36.996c-23.793 0-45.777-12.691-57.676-33.297-11.895-20.605-11.895-45.992 0-66.598 11.898-20.605 33.883-33.297 57.676-33.297h2.5898c23.793 0.46094 45.531 13.582 57.027 34.418 11.496 20.836 11.004 46.223-1.2969 66.598-12.297 20.375-34.527 32.641-58.32 32.176z"/>
  <path d="m516.6 450h-14.801v-14.801c0-1.9609-0.78125-3.8438-2.168-5.2344-1.3867-1.3867-3.2695-2.1641-5.2305-2.1641h-29.602c-4.0859 0-7.3984 3.3125-7.3984 7.3984v14.801h-14.801c-1.9648-0.011719-3.8555 0.75781-5.2539 2.1445-1.3828 1.3945-2.1562 3.2852-2.1445 5.2539v29.598c0 1.9648 0.78125 3.8438 2.168 5.2344 1.3867 1.3867 3.2695 2.168 5.2305 2.168h14.801v14.801-0.003907c0 1.9648 0.78125 3.8438 2.168 5.2344 1.3867 1.3867 3.2695 2.168 5.2305 2.168h29.602c1.9609 0 3.8438-0.78125 5.2305-2.168 1.3867-1.3906 2.168-3.2695 2.168-5.2344v-14.797h14.801c1.9648 0.007812 3.8555-0.76172 5.25-2.1484 1.3867-1.3945 2.1602-3.2852 2.1484-5.2539v-29.598c0-1.9609-0.78125-3.8438-2.168-5.2344-1.3867-1.3867-3.2695-2.1641-5.2305-2.1641zm-7.3984 29.598h-14.801c-2.0039-0.21094-3.9766 0.59375-5.2539 2.1445-1.3867 1.3984-2.1602 3.2891-2.1484 5.2539v14.801h-14.797v-14.801c0-1.9609-0.78125-3.8438-2.168-5.2305-1.3906-1.3906-3.2695-2.168-5.2344-2.168h-14.797v-14.801h14.801-0.003906c1.9688 0.011719 3.8594-0.76172 5.2539-2.1445 1.3867-1.3984 2.1562-3.2891 2.1484-5.2539v-14.801h14.801v14.801h-0.003906c0 1.9609 0.78125 3.8438 2.168 5.2305 1.3867 1.3906 3.2695 2.168 5.2344 2.168h14.801z"/>
 </g>
</svg>

